# xmcd CD database file
#
# Track frame offsets:
#	150
#	3272
#	19572
#	34172
#	51937
#	63587
#	83852
#	98047
#	100437
#	111200
#	126427
#	143202
#	158392
#	169950
#	184550
#	203530
#	219105
#	241965
#
# Disc length: 3350 seconds
#
# Revision: 2
# Processed by: cddbd v1.5.2PL0 Copyright (c) Steve Scherf et al.
# Submitted via: CDex 2.14
#
DISCID=e80d1412
DTITLE=Nashville West - Nashville West
DYEAR=1997
DGENRE=Country
TTITLE0=Nashville West (Intro)
TTITLE1=Mental Revenge
TTITLE2=I Wanna Live
TTITLE3=CC Rider
TTITLE4=Sweet Susannah
TTITLE5=Green, Green Grass Of Home
TTITLE6=Love Of The Common People
TTITLE7=Tuff and String (Intermission Theme)
TTITLE8=I Washed My Hands In Muddy Water
TTITLE9=Greensleeves
TTITLE10=Ode to Billy Joe
TTITLE11=Mom and Dad's Waltz
TTITLE12=Louisianna Rains
TTITLE13=Sing Me Back Home
TTITLE14=Columbus Stockade Blues
TTITLE15=Memphis
TTITLE16=By The Time I Get To Phoenix
TTITLE17=Nashville West (Reprise)
EXTD=YEAR: 1997
EXTT0=
EXTT1=
EXTT2=
EXTT3=
EXTT4=
EXTT5=
EXTT6=
EXTT7=
EXTT8=
EXTT9=
EXTT10=
EXTT11=
EXTT12=
EXTT13=
EXTT14=
EXTT15=
EXTT16=
EXTT17=
PLAYORDER=
